# xmcd CD database file
#
# Track frame offsets:
#	150
#	19900
#	42707
#	62315
#
# Disc length: 1130 seconds
#
# Revision: 0
# Processed by: cddbd v1.5.1PL2 Copyright (c) Steve Scherf et al.
# Submitted via: CDex 1.51
#
DISCID=2e046804
DTITLE=中西圭三 - 願い
DYEAR=1998
DGENRE=JPop
TTITLE0=願い
TTITLE1=SOMEWHERE IN TIME
TTITLE2=願い（オリジナル・カラオケ）
TTITLE3=SOMEWHERE IN TIME（オリジナル・カラオケ）
EXTD=YEAR: 1998/2/4
EXTT0=
EXTT1=
EXTT2=
EXTT3=
PLAYORDER=
